<svg width="497" height="175" viewBox="0 0 497 175" fill="none" xmlns="http://www.w3.org/2000/svg">
<path fill-rule="evenodd" clip-rule="evenodd" d="M370.999 71.9679C370.999 108.394 341.45 137.923 305 137.923C281.855 137.923 261.492 126.017 249.71 108H260.851C271.304 120.775 287.199 128.929 305 128.929C336.48 128.929 362 103.427 362 71.9679C362 40.509 336.48 15.0065 305 15.0065C288.603 15.0065 273.824 21.9249 263.425 33H251.746C263.756 16.6363 283.136 6.01254 305 6.01254C341.45 6.01254 370.999 35.5418 370.999 71.9679Z" fill="#159300"/>
<path d="M22.568 95.72C28.76 95.72 33.944 93.992 38.264 90.464C42.512 87.008 44.672 82.688 44.672 77.576V41H33.8V75.632C33.8 78.584 32.648 81.104 30.488 83.12C28.328 85.208 25.664 86.216 22.568 86.216C19.4 86.216 16.736 85.208 14.576 83.12C12.416 81.104 11.336 78.584 11.336 75.632V41H0.464V77.576C0.464 82.688 2.552 87.008 6.872 90.464C11.12 93.992 16.376 95.72 22.568 95.72ZM72.4843 85.568C71.6203 86.432 70.5403 86.864 69.2443 86.864C68.0923 86.864 67.1562 86.504 66.5083 85.784C65.7883 85.064 65.5003 83.912 65.5003 82.472V66.848H74.5003V59H65.5003V46.76H54.9883V59H50.6683V66.848H54.9883V82.4C54.9883 86.576 56.1403 89.816 58.5883 92.192C60.9643 94.568 64.5643 95.72 69.3163 95.72C72.7003 95.72 75.4363 94.856 77.5243 93.056L72.4843 85.568ZM87.5086 52.808C89.0926 52.808 90.5326 52.232 91.6846 51.08C92.8366 49.928 93.4846 48.56 93.4846 46.904C93.4846 45.32 92.8366 43.88 91.6846 42.728C90.5326 41.576 89.0926 41 87.5086 41C85.9246 41 84.4846 41.576 83.3326 42.728C82.1806 43.88 81.6046 45.32 81.6046 46.904C81.6046 48.56 82.1806 49.928 83.3326 51.08C84.4846 52.232 85.9246 52.808 87.5086 52.808ZM82.2526 95H92.7646V59H82.2526V95ZM116.961 95.72C120.345 95.72 123.081 94.856 125.169 93.056L120.129 85.568C119.265 86.432 118.185 86.864 116.889 86.864C115.737 86.864 114.801 86.504 114.153 85.784C113.433 85.064 113.145 83.912 113.145 82.472V41H102.633V82.4C102.633 86.576 103.785 89.816 106.233 92.192C108.609 94.568 112.209 95.72 116.961 95.72ZM134.477 52.808C136.061 52.808 137.501 52.232 138.653 51.08C139.805 49.928 140.453 48.56 140.453 46.904C140.453 45.32 139.805 43.88 138.653 42.728C137.501 41.576 136.061 41 134.477 41C132.893 41 131.453 41.576 130.301 42.728C129.149 43.88 128.573 45.32 128.573 46.904C128.573 48.56 129.149 49.928 130.301 51.08C131.453 52.232 132.893 52.808 134.477 52.808ZM129.221 95H139.733V59H129.221V95ZM167.898 85.568C167.034 86.432 165.954 86.864 164.658 86.864C163.506 86.864 162.57 86.504 161.922 85.784C161.202 85.064 160.914 83.912 160.914 82.472V66.848H169.914V59H160.914V46.76H150.402V59H146.082V66.848H150.402V82.4C150.402 86.576 151.554 89.816 154.002 92.192C156.378 94.568 159.978 95.72 164.73 95.72C168.114 95.72 170.85 94.856 172.938 93.056L167.898 85.568ZM192.355 58.28C188.611 58.28 185.443 58.784 182.995 59.792C180.475 60.8 178.243 62.384 176.227 64.544L182.491 70.52C184.867 67.64 187.819 66.2 191.347 66.2C193.363 66.2 195.019 66.704 196.387 67.64C197.755 68.648 198.475 70.088 198.475 72.032V75.128L193.363 74.336C187.819 73.472 183.499 74.12 180.403 76.208C177.307 78.296 175.795 81.104 175.795 84.704C175.795 88.088 176.875 90.752 179.035 92.768C181.195 94.784 184.003 95.72 187.459 95.72C191.707 95.72 195.667 94.352 199.339 91.472L199.843 95H208.699V72.104C208.699 67.496 207.187 64.04 204.235 61.736C201.211 59.432 197.251 58.28 192.355 58.28ZM186.739 84.128C186.739 82.688 187.387 81.536 188.755 80.744C190.123 80.024 192.427 79.952 195.595 80.528L198.475 81.104V84.776C196.027 86.936 193.579 88.016 191.131 88.016C189.835 88.016 188.755 87.728 187.963 87.008C187.099 86.288 186.739 85.352 186.739 84.128ZM237.397 58.28C233.221 58.28 229.765 60.368 227.101 64.544L226.525 59H217.093V95H227.605V77C227.605 74.12 228.397 71.816 230.125 70.088C231.853 68.36 233.797 67.424 236.101 67.424C238.261 67.424 240.133 68 241.717 69.08L246.109 61.376C243.949 59.36 241.069 58.28 237.397 58.28ZM255.063 52.808C256.647 52.808 258.087 52.232 259.239 51.08C260.391 49.928 261.039 48.56 261.039 46.904C261.039 45.32 260.391 43.88 259.239 42.728C258.087 41.576 256.647 41 255.063 41C253.479 41 252.039 41.576 250.887 42.728C249.735 43.88 249.159 45.32 249.159 46.904C249.159 48.56 249.735 49.928 250.887 51.08C252.039 52.232 253.479 52.808 255.063 52.808ZM249.807 95H260.319V59H249.807V95ZM285.308 58.28C281.564 58.28 278.396 58.784 275.948 59.792C273.428 60.8 271.196 62.384 269.18 64.544L275.444 70.52C277.82 67.64 280.772 66.2 284.3 66.2C286.316 66.2 287.972 66.704 289.34 67.64C290.708 68.648 291.428 70.088 291.428 72.032V75.128L286.316 74.336C280.772 73.472 276.452 74.12 273.356 76.208C270.26 78.296 268.748 81.104 268.748 84.704C268.748 88.088 269.828 90.752 271.988 92.768C274.148 94.784 276.956 95.72 280.412 95.72C284.66 95.72 288.62 94.352 292.292 91.472L292.796 95H301.652V72.104C301.652 67.496 300.14 64.04 297.188 61.736C294.164 59.432 290.204 58.28 285.308 58.28ZM279.692 84.128C279.692 82.688 280.34 81.536 281.708 80.744C283.076 80.024 285.38 79.952 288.548 80.528L291.428 81.104V84.776C288.98 86.936 286.532 88.016 284.084 88.016C282.788 88.016 281.708 87.728 280.916 87.008C280.052 86.288 279.692 85.352 279.692 84.128ZM330.999 58.28C326.679 58.28 323.007 59.936 320.055 63.176L319.479 59H310.047V95H320.559V74.12C320.559 72.248 321.207 70.664 322.647 69.368C324.087 68.072 325.815 67.424 327.903 67.424C329.847 67.424 331.431 68 332.727 69.152C333.951 70.304 334.599 71.744 334.599 73.544V95H345.111V72.248C345.111 68.072 343.815 64.688 341.223 62.096C338.631 59.576 335.175 58.28 330.999 58.28Z" fill="white"/>
<path d="M16.936 114.904C17.152 113.104 16.84 111.64 15.976 110.488C15.112 109.336 13.84 108.76 12.208 108.76C10.48 108.76 9.04 109.36 7.84 110.536C6.64 111.736 5.944 113.224 5.752 115C5.512 116.8 5.848 118.288 6.76 119.464C7.648 120.664 8.944 121.24 10.672 121.24C12.784 121.24 14.44 120.376 15.688 118.6L14.68 117.808C14.128 118.528 13.552 119.056 12.952 119.368C12.352 119.704 11.656 119.848 10.888 119.848C10.072 119.848 9.376 119.68 8.8 119.296C8.224 118.936 7.816 118.432 7.552 117.784C7.264 117.136 7.168 116.392 7.216 115.528H16.84C16.864 115.384 16.888 115.192 16.936 114.904ZM12.064 110.128C13.216 110.128 14.08 110.512 14.704 111.28C15.328 112.048 15.616 113.032 15.568 114.28H7.384C7.672 113.032 8.224 112.048 9.04 111.28C9.856 110.512 10.864 110.128 12.064 110.128ZM26.1239 108.76C25.2839 108.76 24.4919 108.952 23.7719 109.312C23.0279 109.672 22.4039 110.176 21.8759 110.8L22.0199 109H20.5559L19.0919 121H20.6759L21.5879 113.632C21.6839 112.672 22.1399 111.856 22.9079 111.184C23.6759 110.512 24.5639 110.176 25.5479 110.176C26.5079 110.176 27.2999 110.512 27.8759 111.16C28.4519 111.832 28.6919 112.624 28.5959 113.56L27.6839 121H29.2679L30.2039 113.416C30.3479 112.096 30.0359 110.992 29.2679 110.104C28.4759 109.216 27.4199 108.76 26.1239 108.76ZM44.0766 114.904C44.2926 113.104 43.9806 111.64 43.1166 110.488C42.2526 109.336 40.9806 108.76 39.3486 108.76C37.6206 108.76 36.1806 109.36 34.9806 110.536C33.7806 111.736 33.0846 113.224 32.8926 115C32.6526 116.8 32.9886 118.288 33.9006 119.464C34.7886 120.664 36.0846 121.24 37.8126 121.24C39.9246 121.24 41.5806 120.376 42.8286 118.6L41.8206 117.808C41.2686 118.528 40.6926 119.056 40.0926 119.368C39.4926 119.704 38.7966 119.848 38.0286 119.848C37.2126 119.848 36.5166 119.68 35.9406 119.296C35.3646 118.936 34.9566 118.432 34.6926 117.784C34.4046 117.136 34.3086 116.392 34.3566 115.528H43.9806C44.0046 115.384 44.0286 115.192 44.0766 114.904ZM39.2046 110.128C40.3566 110.128 41.2206 110.512 41.8446 111.28C42.4686 112.048 42.7566 113.032 42.7086 114.28H34.5246C34.8126 113.032 35.3646 112.048 36.1806 111.28C36.9966 110.512 38.0046 110.128 39.2046 110.128ZM52.9525 108.76C52.2325 108.76 51.5125 108.976 50.8165 109.36C50.0965 109.768 49.4965 110.296 48.9925 110.968L49.1605 109H47.6965L46.2325 121H47.8165L48.6805 113.992C48.8005 112.936 49.2565 112.024 50.0725 111.28C50.8645 110.56 51.7285 110.176 52.6885 110.176C53.3125 110.176 53.8645 110.296 54.2965 110.488L55.1845 109.336C54.6565 108.952 53.9125 108.76 52.9525 108.76ZM65.7456 109L65.3856 111.208C64.9776 110.44 64.4256 109.84 63.7296 109.408C63.0096 108.976 62.2176 108.76 61.3296 108.76C59.6736 108.76 58.2576 109.36 57.0816 110.56C55.9056 111.76 55.2096 113.224 55.0176 115C54.7776 116.776 55.1136 118.24 56.0016 119.44C56.8656 120.64 58.1376 121.24 59.7936 121.24C60.6816 121.24 61.5216 121.048 62.3376 120.616C63.1296 120.184 63.8256 119.608 64.4256 118.84L64.1856 120.832C63.9936 122.224 63.4896 123.376 62.6256 124.264C61.7616 125.152 60.7536 125.584 59.6016 125.584C58.0896 125.584 56.8656 125.032 55.9536 123.904L55.7376 125.68C56.6976 126.568 57.8976 127 59.3136 127C60.1296 127 60.9216 126.856 61.6656 126.52C62.4096 126.208 63.0576 125.776 63.6096 125.224C64.1616 124.696 64.6176 124.048 65.0016 123.28C65.3616 122.512 65.6016 121.696 65.7216 120.832L67.1616 109H65.7456ZM60.1776 119.824C58.9056 119.824 57.9456 119.368 57.2736 118.432C56.6016 117.52 56.3616 116.368 56.5536 115C56.6976 113.632 57.2256 112.48 58.1376 111.568C59.0256 110.656 60.1056 110.176 61.3536 110.176C62.3616 110.176 63.2016 110.536 63.8736 111.232C64.5456 111.952 64.9296 112.84 65.0256 113.896L64.7616 116.08C64.4016 117.184 63.8016 118.072 62.9616 118.768C62.0976 119.488 61.1856 119.824 60.1776 119.824ZM81.1934 109H79.6334L78.7454 116.344C78.6014 117.304 78.1454 118.144 77.3774 118.816C76.6094 119.488 75.7214 119.824 74.7614 119.824C73.7774 119.824 72.9854 119.488 72.4094 118.816C71.8094 118.144 71.5694 117.304 71.7134 116.344L72.6014 109H71.0174L70.1054 116.512C69.9374 117.832 70.2494 118.96 71.0654 119.872C71.8574 120.784 72.9134 121.24 74.2574 121.24C75.0254 121.24 75.7694 121.072 76.4894 120.712C77.2094 120.352 77.8574 119.872 78.3854 119.248L78.0974 121.6C77.9774 122.464 77.7614 123.184 77.4494 123.784C77.1374 124.384 76.6814 124.864 76.0814 125.224C75.4574 125.584 74.7374 125.752 73.8974 125.752C72.1694 125.752 70.8014 125.2 69.7694 124.072L69.5534 125.848C70.6094 126.736 71.9774 127.168 73.6094 127.168C75.3854 127.168 76.7774 126.664 77.8094 125.632C78.8414 124.6 79.4654 123.256 79.6814 121.6L81.1934 109ZM93.6183 121.24C94.4343 121.24 95.2263 121.096 95.9463 120.808C96.6663 120.52 97.2423 120.088 97.7223 119.536C98.1783 119.008 98.4423 118.384 98.5383 117.712C98.5623 117.376 98.5383 117.088 98.4903 116.8C98.4423 116.512 98.3703 116.272 98.2743 116.08C98.1783 115.888 98.0103 115.696 97.7943 115.504C97.5543 115.312 97.3623 115.168 97.2183 115.072C97.0503 114.976 96.8103 114.88 96.4743 114.736C96.1383 114.616 95.8743 114.52 95.7063 114.472C95.5383 114.424 95.2743 114.352 94.9143 114.232C94.4343 114.112 94.0503 113.992 93.7863 113.896C93.5223 113.8 93.2343 113.68 92.9463 113.488C92.6343 113.32 92.4183 113.104 92.2983 112.84C92.1783 112.6 92.1303 112.288 92.1783 111.928C92.2503 111.304 92.6103 110.848 93.2343 110.512C93.8583 110.176 94.5543 110.032 95.3223 110.056C96.4503 110.104 97.2903 110.488 97.8663 111.184L98.9463 110.104C98.5383 109.72 97.9863 109.408 97.3143 109.144C96.6423 108.904 95.9463 108.76 95.2263 108.76C94.0983 108.76 93.0663 109.072 92.1543 109.672C91.2183 110.296 90.6903 111.112 90.5703 112.12C90.5223 112.552 90.5463 112.936 90.6663 113.272C90.7863 113.608 90.9303 113.896 91.1223 114.112C91.3143 114.328 91.5783 114.52 91.9383 114.712C92.2983 114.904 92.6103 115.048 92.8983 115.144C93.1623 115.24 93.5223 115.36 93.9543 115.48C94.0023 115.504 94.0983 115.528 94.1943 115.552C94.5783 115.672 94.8903 115.768 95.0823 115.84C95.2743 115.912 95.5383 116.008 95.8503 116.152C96.1383 116.296 96.3543 116.416 96.4983 116.56C96.6423 116.704 96.7383 116.872 96.8343 117.088C96.9303 117.304 96.9543 117.544 96.9303 117.808C96.8343 118.48 96.4983 119.008 95.8983 119.392C95.2743 119.776 94.5543 119.944 93.7143 119.92C92.9223 119.92 92.1783 119.752 91.4823 119.416C90.7623 119.08 90.3063 118.696 90.0903 118.216L89.0583 119.224C89.3703 119.8 89.9703 120.28 90.8343 120.664C91.6983 121.048 92.6103 121.24 93.6183 121.24ZM105.877 121.24C107.557 121.24 109.021 120.64 110.245 119.44C111.469 118.24 112.189 116.776 112.405 115C112.621 113.248 112.261 111.76 111.349 110.56C110.413 109.36 109.093 108.76 107.413 108.76C105.709 108.76 104.245 109.36 103.021 110.56C101.797 111.76 101.077 113.248 100.861 115C100.645 116.776 101.005 118.24 101.941 119.44C102.853 120.64 104.173 121.24 105.877 121.24ZM106.045 119.824C104.773 119.824 103.813 119.368 103.141 118.432C102.469 117.52 102.229 116.368 102.421 115C102.565 113.632 103.093 112.48 104.005 111.568C104.893 110.656 105.973 110.176 107.221 110.176C108.493 110.176 109.453 110.656 110.125 111.568C110.773 112.48 111.013 113.632 110.869 115C110.677 116.368 110.149 117.52 109.261 118.432C108.373 119.368 107.293 119.824 106.045 119.824ZM117.839 121.24C118.751 121.24 119.495 120.976 120.119 120.424L119.351 119.344C118.991 119.68 118.559 119.848 118.031 119.848C117.503 119.848 117.119 119.704 116.879 119.416C116.639 119.128 116.543 118.696 116.639 118.12L118.463 103H116.903L115.055 118.12C114.935 119.056 115.127 119.8 115.631 120.376C116.135 120.952 116.879 121.24 117.839 121.24ZM131.712 109L130.824 116.344C130.68 117.304 130.224 118.144 129.456 118.816C128.688 119.488 127.8 119.824 126.84 119.824C125.855 119.824 125.064 119.488 124.488 118.816C123.888 118.144 123.648 117.304 123.792 116.344L124.68 109H123.096L122.184 116.512C122.016 117.832 122.328 118.96 123.144 119.872C123.936 120.784 124.992 121.24 126.336 121.24C127.104 121.24 127.872 121.072 128.616 120.688C129.336 120.328 129.96 119.824 130.488 119.176L130.368 121H131.807L133.272 109H131.712ZM140.615 119.344C140.255 119.68 139.823 119.848 139.319 119.848C138.791 119.848 138.407 119.704 138.167 119.416C137.903 119.128 137.807 118.696 137.903 118.12L138.863 110.248H141.959L142.103 109H139.007L139.511 104.92H137.927L137.423 109H135.767L135.623 110.248H137.279L136.319 118.12C136.199 119.056 136.391 119.8 136.895 120.376C137.399 120.952 138.143 121.24 139.103 121.24C140.015 121.24 140.759 120.976 141.383 120.424L140.615 119.344ZM146.334 106.72C146.646 106.72 146.934 106.624 147.198 106.384C147.462 106.144 147.605 105.88 147.654 105.544C147.702 105.232 147.605 104.968 147.414 104.728C147.198 104.488 146.934 104.368 146.622 104.368C146.286 104.368 145.998 104.488 145.758 104.728C145.494 104.968 145.35 105.232 145.302 105.544C145.254 105.88 145.35 106.144 145.542 106.384C145.734 106.624 145.998 106.72 146.334 106.72ZM143.79 121H145.374L146.838 109H145.254L143.79 121ZM154.463 121.24C156.143 121.24 157.607 120.64 158.831 119.44C160.055 118.24 160.775 116.776 160.991 115C161.207 113.248 160.847 111.76 159.935 110.56C158.999 109.36 157.679 108.76 155.999 108.76C154.295 108.76 152.831 109.36 151.607 110.56C150.383 111.76 149.663 113.248 149.447 115C149.231 116.776 149.591 118.24 150.527 119.44C151.439 120.64 152.759 121.24 154.463 121.24ZM154.631 119.824C153.359 119.824 152.399 119.368 151.727 118.432C151.055 117.52 150.815 116.368 151.007 115C151.151 113.632 151.679 112.48 152.591 111.568C153.479 110.656 154.559 110.176 155.807 110.176C157.079 110.176 158.039 110.656 158.711 111.568C159.359 112.48 159.599 113.632 159.455 115C159.263 116.368 158.735 117.52 157.847 118.432C156.959 119.368 155.879 119.824 154.631 119.824ZM170.241 108.76C169.401 108.76 168.609 108.952 167.889 109.312C167.145 109.672 166.521 110.176 165.993 110.8L166.137 109H164.673L163.209 121H164.793L165.705 113.632C165.801 112.672 166.257 111.856 167.025 111.184C167.793 110.512 168.681 110.176 169.665 110.176C170.625 110.176 171.417 110.512 171.993 111.16C172.569 111.832 172.809 112.624 172.713 113.56L171.801 121H173.385L174.321 113.416C174.465 112.096 174.153 110.992 173.385 110.104C172.593 109.216 171.537 108.76 170.241 108.76ZM180.97 121.24C181.786 121.24 182.578 121.096 183.298 120.808C184.018 120.52 184.594 120.088 185.074 119.536C185.53 119.008 185.794 118.384 185.89 117.712C185.914 117.376 185.89 117.088 185.842 116.8C185.794 116.512 185.722 116.272 185.626 116.08C185.53 115.888 185.362 115.696 185.146 115.504C184.906 115.312 184.714 115.168 184.57 115.072C184.402 114.976 184.162 114.88 183.826 114.736C183.49 114.616 183.226 114.52 183.058 114.472C182.89 114.424 182.626 114.352 182.266 114.232C181.786 114.112 181.402 113.992 181.138 113.896C180.874 113.8 180.586 113.68 180.298 113.488C179.986 113.32 179.77 113.104 179.65 112.84C179.53 112.6 179.482 112.288 179.53 111.928C179.602 111.304 179.962 110.848 180.586 110.512C181.21 110.176 181.906 110.032 182.674 110.056C183.802 110.104 184.642 110.488 185.218 111.184L186.298 110.104C185.89 109.72 185.338 109.408 184.666 109.144C183.994 108.904 183.298 108.76 182.578 108.76C181.45 108.76 180.418 109.072 179.506 109.672C178.57 110.296 178.042 111.112 177.922 112.12C177.874 112.552 177.898 112.936 178.018 113.272C178.138 113.608 178.282 113.896 178.474 114.112C178.666 114.328 178.93 114.52 179.29 114.712C179.65 114.904 179.962 115.048 180.25 115.144C180.514 115.24 180.874 115.36 181.306 115.48C181.354 115.504 181.45 115.528 181.546 115.552C181.93 115.672 182.242 115.768 182.434 115.84C182.626 115.912 182.89 116.008 183.202 116.152C183.49 116.296 183.706 116.416 183.85 116.56C183.994 116.704 184.09 116.872 184.186 117.088C184.282 117.304 184.306 117.544 184.282 117.808C184.186 118.48 183.85 119.008 183.25 119.392C182.626 119.776 181.906 119.944 181.066 119.92C180.274 119.92 179.53 119.752 178.834 119.416C178.114 119.08 177.658 118.696 177.442 118.216L176.41 119.224C176.722 119.8 177.322 120.28 178.186 120.664C179.05 121.048 179.962 121.24 180.97 121.24Z" fill="white"/>
</svg>
